<?xml version="1.0" standalone="no"?>
<!DOCTYPE svg PUBLIC "-//W3C//DTD SVG 20010904//EN"
 "http://www.w3.org/TR/2001/REC-SVG-20010904/DTD/svg10.dtd">
<svg version="1.0" xmlns="http://www.w3.org/2000/svg"
 width="851.000000pt" height="315.000000pt" viewBox="0 0 851.000000 315.000000"
 preserveAspectRatio="xMidYMid meet">

<g transform="translate(0.000000,315.000000) scale(0.100000,-0.100000)"
fill="#000000" stroke="none">
<path d="M0 1575 l0 -1575 4255 0 4255 0 0 1575 0 1575 -4255 0 -4255 0 0
-1575z m6851 881 c15 -32 31 -83 35 -112 l6 -54 41 36 c110 93 258 125 419 88
l72 -16 -101 -33 c-87 -29 -170 -65 -210 -92 -7 -5 26 -9 75 -10 103 -1 188
-21 274 -64 67 -33 173 -108 165 -115 -3 -3 -42 2 -87 10 -51 10 -136 16 -224
16 l-141 -1 50 -22 c175 -78 289 -195 321 -331 l7 -29 -64 36 c-65 36 -228 99
-286 112 l-31 6 40 -80 c35 -68 42 -91 46 -158 2 -44 -1 -97 -8 -121 l-11 -44
-42 84 c-42 82 -92 156 -160 233 l-35 40 6 -54 5 -54 -79 66 c-43 36 -80 64
-82 62 -2 -2 3 -39 12 -82 18 -90 50 -313 66 -458 15 -132 25 -648 15 -808
l-7 -127 -114 0 c-63 0 -114 2 -114 4 0 2 9 46 19 97 21 103 54 328 72 484 13
126 24 697 14 800 l-7 76 -56 -72 -56 -73 -11 50 -10 49 -46 -90 c-45 -88 -80
-180 -97 -260 l-9 -40 -22 47 c-45 99 -49 194 -10 305 10 29 16 53 13 53 -28
0 -217 -118 -288 -179 -26 -23 -51 -40 -54 -37 -9 9 19 127 42 180 32 72 97
149 169 202 34 25 64 48 67 51 20 21 -239 -38 -337 -77 -42 -17 -77 -29 -80
-27 -7 8 60 83 115 130 74 63 183 115 282 134 44 9 79 17 77 19 -11 11 -179
45 -252 52 l-90 8 52 27 c139 72 301 75 433 8 l55 -28 0 86 c0 77 4 93 33 156
l34 70 30 -35 c17 -19 43 -61 59 -94z m-5261 -503 c40 -98 76 -181 79 -185 4
-4 38 75 76 177 l70 185 88 0 c48 0 87 -4 87 -9 0 -5 -10 -11 -22 -13 l-23 -3
0 -250 0 -250 23 -3 c12 -2 22 -8 22 -13 0 -5 -53 -9 -120 -9 -73 0 -120 4
-120 10 0 6 8 10 19 10 38 0 42 19 39 239 l-3 212 -90 -235 c-49 -130 -94
-235 -99 -233 -4 1 -54 112 -110 245 l-101 243 -3 -193 c-4 -243 -2 -255 46
-276 l37 -17 -42 -3 c-24 -2 -62 -2 -85 0 -43 4 -43 4 -16 15 15 7 30 23 33
35 3 13 4 124 3 248 -3 216 -4 225 -23 228 -11 2 -24 8 -29 13 -6 5 30 9 90 9
l101 0 73 -177z m906 -79 c58 -153 105 -261 116 -268 10 -6 18 -14 18 -18 0
-5 -52 -8 -115 -8 -70 0 -115 4 -115 10 0 6 9 10 20 10 33 0 34 26 3 108 l-29
77 -85 3 -86 3 -23 -70 c-26 -81 -21 -109 21 -118 54 -11 29 -23 -46 -23 -43
0 -75 4 -75 10 0 6 4 10 9 10 18 0 50 69 136 290 48 124 89 228 92 233 2 4 17
7 32 7 27 0 30 -6 127 -256z m481 250 c-4 -4 -17 -12 -29 -18 -23 -11 -23 -14
-26 -245 -2 -243 0 -261 39 -261 11 0 19 -4 19 -10 0 -6 -47 -10 -120 -10 -73
0 -120 4 -120 10 0 6 9 10 20 10 35 0 40 31 40 255 0 224 -5 255 -40 255 -11
0 -20 5 -20 10 0 6 47 10 122 10 67 0 118 -3 115 -6z m424 -173 c79 -99 147
-180 152 -180 9 -1 9 208 0 274 -5 42 -10 49 -40 61 -18 8 -33 16 -33 19 0 3
34 5 75 5 77 0 92 -8 53 -25 -32 -14 -37 -54 -37 -307 -1 -207 -2 -218 -20
-218 -13 0 -73 68 -182 207 l-164 208 -3 -170 c-1 -94 0 -180 3 -193 4 -15 15
-25 35 -29 55 -10 31 -23 -45 -23 -71 0 -99 11 -55 23 34 9 40 50 40 263 0
204 -6 244 -35 244 -7 0 -17 5 -20 10 -4 6 19 10 63 10 l69 0 144 -179z m729
-75 c62 -158 105 -256 118 -267 12 -9 22 -20 22 -23 0 -3 -54 -6 -120 -6 -67
0 -120 4 -120 9 0 5 10 11 22 13 33 4 33 31 3 114 l-27 75 -86 -3 -85 -3 -19
-55 c-10 -30 -17 -68 -16 -84 3 -28 10 -35 53 -53 13 -5 -6 -9 -59 -11 -43 -2
-80 -1 -83 1 -2 3 9 17 24 33 20 20 56 101 122 272 l94 243 30 -3 c29 -3 32
-8 127 -252z m485 245 c-6 -5 -19 -11 -30 -13 -18 -3 -20 -12 -23 -116 -3
-106 -2 -112 17 -112 26 0 77 45 130 113 50 65 54 102 14 119 -27 12 -27 13
19 16 26 2 71 2 100 0 l53 -3 -35 -17 c-19 -9 -47 -27 -61 -40 -49 -44 -121
-138 -116 -151 13 -34 198 -308 212 -313 39 -15 5 -24 -95 -24 -67 0 -110 4
-110 10 0 6 9 10 20 10 11 0 20 4 20 10 0 21 -142 240 -156 240 -12 0 -14 -21
-12 -122 3 -114 4 -123 23 -126 11 -2 24 -8 30 -13 5 -5 -42 -9 -119 -9 -82 0
-125 4 -121 10 3 6 15 10 25 10 12 0 22 9 25 23 3 12 4 125 3 252 -3 221 -4
230 -23 233 -11 2 -24 8 -29 13 -6 5 42 9 119 9 77 0 125 -4 120 -9z m815 -76
c0 -47 -4 -85 -8 -85 -5 0 -14 22 -21 50 -9 33 -23 58 -43 75 -27 23 -38 26
-92 23 l-61 -3 -3 -117 -3 -118 26 0 c41 0 61 16 80 62 10 24 19 39 21 33 7
-26 10 -215 3 -215 -5 0 -15 15 -23 34 -16 39 -51 66 -84 66 -23 0 -23 0 -20
-122 l3 -123 60 -3 c95 -4 126 24 161 146 10 35 19 2 21 -78 l2 -90 -215 0
c-125 0 -214 4 -214 9 0 5 10 11 23 13 l22 3 0 250 0 250 -22 3 c-13 2 -23 8
-23 13 0 5 85 9 205 9 l205 0 0 -85z m-3548 -846 c33 -17 42 -18 49 -7 5 7 9
17 9 23 0 6 3 6 8 0 9 -12 3 -155 -7 -155 -4 0 -12 21 -19 46 -17 65 -53 94
-113 94 -54 0 -84 -20 -95 -66 -13 -50 18 -88 125 -159 116 -76 141 -109 141
-183 0 -40 -5 -57 -27 -83 -52 -61 -153 -78 -227 -38 l-39 21 -19 -24 c-17
-23 -18 -21 -18 75 0 53 4 97 8 97 5 0 16 -26 25 -59 22 -78 59 -111 126 -111
67 0 101 32 101 93 0 58 -20 82 -124 150 -94 62 -122 96 -132 154 -18 116 112
191 228 132z m2792 10 c52 -14 119 -83 139 -144 22 -64 22 -187 0 -250 -22
-67 -93 -137 -156 -154 -114 -32 -226 11 -281 109 -29 52 -31 61 -31 160 0 95
3 110 27 156 29 55 74 99 123 120 37 16 126 18 179 3z m-2107 -79 c-2 -81 -12
-103 -23 -52 -22 99 -35 112 -108 112 l-46 0 0 -243 c0 -257 2 -267 47 -267
13 0 23 -4 23 -10 0 -6 -45 -10 -116 -10 -74 0 -113 4 -109 10 3 6 16 10 29
10 44 0 46 10 46 267 l0 243 -44 0 c-24 0 -52 -3 -61 -6 -20 -8 -40 -48 -49
-96 -12 -65 -26 -42 -26 42 l0 80 219 0 219 0 -1 -80z m328 71 c-6 -5 -19 -11
-30 -13 -10 -2 -22 -14 -26 -28 -10 -37 -10 -274 1 -355 7 -60 13 -74 41 -99
29 -26 37 -28 90 -24 111 8 131 48 136 283 4 184 -2 217 -45 223 -12 2 -22 8
-22 13 0 5 35 9 77 9 46 0 73 -4 67 -9 -5 -5 -18 -11 -29 -13 -19 -3 -20 -13
-26 -193 -6 -198 -15 -252 -53 -294 -63 -71 -199 -68 -268 5 -38 41 -47 96
-48 286 0 91 -3 173 -6 182 -3 9 -17 16 -30 16 -13 0 -24 5 -24 10 0 6 41 10
102 10 61 0 98 -4 93 -9z m758 -5 c66 -20 104 -51 134 -109 24 -45 27 -64 27
-142 0 -74 -4 -99 -23 -138 -30 -61 -91 -113 -155 -132 -56 -17 -306 -21 -306
-6 0 5 12 11 28 13 l27 3 0 250 c0 242 -1 250 -20 253 -11 2 -24 8 -29 13 -16
15 264 11 317 -5z m522 5 c-6 -5 -19 -11 -30 -13 -19 -3 -20 -11 -20 -253 l0
-250 28 -3 c15 -2 27 -8 27 -13 0 -5 -45 -9 -100 -9 -55 0 -100 4 -100 9 0 5
12 11 28 13 l27 3 0 250 c0 242 -1 250 -20 253 -11 2 -24 8 -29 13 -6 5 32 9
94 9 62 0 100 -4 95 -9z"/>
<path d="M2272 1912 c-18 -48 -32 -90 -32 -94 0 -5 32 -8 70 -8 39 0 70 3 70
7 0 16 -63 183 -69 183 -3 0 -21 -40 -39 -88z"/>
<path d="M3910 1918 c-19 -51 -36 -96 -38 -100 -2 -4 31 -8 73 -8 69 0 76 2
70 18 -4 9 -20 54 -37 100 -16 45 -31 82 -32 82 -1 0 -17 -41 -36 -92z"/>
<path d="M4535 1196 c-39 -17 -79 -64 -97 -113 -8 -23 -13 -82 -13 -149 0
-103 2 -114 30 -170 25 -48 38 -63 77 -82 40 -20 51 -22 86 -12 84 22 132 119
132 265 0 135 -43 230 -116 261 -41 17 -60 17 -99 0z"/>
<path d="M3488 1190 c-16 -10 -18 -33 -18 -256 0 -282 -5 -268 102 -254 108
15 156 78 165 219 10 138 -26 238 -97 273 -45 22 -130 32 -152 18z"/>
</g>
</svg>
